<svg width="200" height="200" viewBox="0 0 200 200" fill="none" xmlns="http://www.w3.org/2000/svg">
<path d="M144 28C161.673 28 176 42.3269 176 60V122C176 139.673 161.673 154 144 154H96.2559C96.2442 154.265 96.1285 154.53 95.8818 154.728L60.5605 182.983C59.9171 183.498 58.9624 183.058 58.9365 182.234L58.0547 154H56C38.3269 154 24 139.673 24 122V60C24 42.3269 38.3269 28 56 28H144Z" fill="#4CAB9E"/>
<path d="M99.3127 48.6504C99.6983 48.2855 100.302 48.2855 100.687 48.6504L144.676 90.2736C145.332 90.8952 144.893 92 143.988 92H136.34C135.788 92 135.34 92.4477 135.34 93V133C135.34 133.552 134.892 134 134.34 134H65.66C65.1077 134 64.66 133.552 64.66 133V93C64.66 92.4477 64.2123 92 63.66 92H56.0118C55.1075 92 54.6676 90.8952 55.3245 90.2736L99.3127 48.6504Z" fill="white"/>
<path d="M89 135C88.4477 135 88 134.552 88 134V116.4C88 113.111 89.2906 109.957 91.5879 107.632C93.8853 105.306 97.0011 104 100.25 104C103.499 104 106.615 105.306 108.912 107.632C111.209 109.957 112.5 113.111 112.5 116.4V134C112.5 134.552 112.052 135 111.5 135H89Z" fill="#4CAB9E"/>
</svg>
